<svg id="Layer_1" data-name="Layer 1" xmlns="http://www.w3.org/2000/svg" viewBox="0 0 300 300"><defs><style>.cls-1{fill:#fbaf21;}.cls-2{fill:#bd4127;}</style></defs><title>OK Emoji R3</title><path class="cls-1" d="M154.54,39.57V188.48a11.12,11.12,0,0,0,11.12,11.12h80.86a11.12,11.12,0,0,0,11.12-11.12V39.57a11.12,11.12,0,0,0-11.12-11.12H165.66A11.12,11.12,0,0,0,154.54,39.57ZM215,167.33h-17.8a11.12,11.12,0,0,1-11.12-11.12V71.84a11.12,11.12,0,0,1,11.12-11.12H215a11.12,11.12,0,0,1,11.12,11.12v84.37A11.12,11.12,0,0,1,215,167.33Z"/><path class="cls-2" d="M166.72,39.57V188.48a11.12,11.12,0,0,0,11.12,11.12H258.7a11.12,11.12,0,0,0,11.12-11.12V39.57A11.12,11.12,0,0,0,258.7,28.45H177.84A11.12,11.12,0,0,0,166.72,39.57Zm60.45,127.76h-17.8a11.12,11.12,0,0,1-11.12-11.12V71.84a11.12,11.12,0,0,1,11.12-11.12h17.8a11.12,11.12,0,0,1,11.12,11.12v84.37A11.12,11.12,0,0,1,227.17,167.33Z"/><path class="cls-1" d="M101.21,30.94v68.6a2.49,2.49,0,0,1-4.72,1.09L61.85,29.85a2.48,2.48,0,0,0-2.23-1.4H32.13a2.49,2.49,0,0,0-2.49,2.49V197.11a2.49,2.49,0,0,0,2.49,2.49H58.68a2.49,2.49,0,0,0,2.49-2.49v-68.6a2.49,2.49,0,0,1,4.72-1.09l34.64,70.78a2.49,2.49,0,0,0,2.24,1.4h27.49a2.49,2.49,0,0,0,2.48-2.49V30.94a2.49,2.49,0,0,0-2.48-2.49H103.7A2.5,2.5,0,0,0,101.21,30.94Z"/><path class="cls-2" d="M113.4,29.53v76.1a1.08,1.08,0,0,1-2.05.47l-37.7-77a1.09,1.09,0,0,0-1-.61H42.9a1.08,1.08,0,0,0-1.08,1.08v169a1.08,1.08,0,0,0,1.08,1.08H72.27a1.08,1.08,0,0,0,1.08-1.08v-76.1A1.08,1.08,0,0,1,75.4,122l37.7,77a1.09,1.09,0,0,0,1,.61h29.78a1.08,1.08,0,0,0,1.08-1.08v-169a1.09,1.09,0,0,0-1.08-1.08H114.47A1.08,1.08,0,0,0,113.4,29.53Z"/><rect class="cls-1" x="29.21" y="211.51" width="228" height="24.06" rx="5" ry="5"/><rect class="cls-1" x="29.21" y="247.49" width="228" height="24.06" rx="5" ry="5"/><rect class="cls-2" x="41.82" y="211.51" width="228" height="24.06" rx="5" ry="5"/><rect class="cls-2" x="41.82" y="247.49" width="228" height="24.06" rx="5" ry="5"/></svg>