<svg id="Layer_1" data-name="Layer 1" xmlns="http://www.w3.org/2000/svg" viewBox="0 0 300 300"><defs><style>.cls-1{fill:#fbaf21;}.cls-2{fill:#bd4127;}</style></defs><title>OK Emoji R3</title><path class="cls-1" d="M245.87,175.84l-12.36-38.25a10,10,0,0,0-2.93-4.46h0l-.25-.21-.24-.2c-3.6-3-26.62-22.32-29.54-24.6-3.17-2.46-9.16-3.7-13.57-1.93s-33.65,18.32-33.65,18.32L159.84,91l31-18.32h0l44.2-7.39a10.19,10.19,0,0,0,8.33-11.69l-.49-2.94a10.18,10.18,0,0,0-11.69-8.34L184.86,50.1,199,43.23a10.18,10.18,0,0,0,4.69-13.57L202.39,27a10.17,10.17,0,0,0-13.56-4.69L130.31,50.73a9.83,9.83,0,0,0-1.34.79l-.82.26S85.73,79.87,82,83.39s-4,4.23-5.64,9.4-20.27,87.44-21.61,95.6c-2.35,14.33-4.46,31.25,12.1,55.56s46.51,40.52,78.57,33.83,43.34-29.25,50.74-41.23,14.47-17,24.48-23.24a205.58,205.58,0,0,0,22.56-17.11c1.85-1.84.29-5.65-2.25-8.26A10.17,10.17,0,0,0,245.87,175.84ZM217.8,185.5a75.69,75.69,0,0,0-33.64,13.92c-4.17,3.16-11.28,8.06-11.28,8.06l-10-25.19,29.07-39.75s11.17,9.31,19.85,10.1l12,30.36a9,9,0,0,0,.7,1.62C222.59,184.79,220.43,185.08,217.8,185.5Z"/><path class="cls-2" d="M203.7,29.66,202.39,27a10.17,10.17,0,0,0-13.56-4.69L175.9,28.57C182,32.16,191.74,35.16,203.7,29.66Z"/><path class="cls-2" d="M242.92,50.68a10.18,10.18,0,0,0-11.69-8.34l-13.06,2.19c4.57,5.29,12.36,10.8,24.72,10l.62,0c0-.3,0-.59-.1-.89Z"/><path class="cls-2" d="M242.56,165.58l3.31,10.26a10.17,10.17,0,0,1-5,12.1S233.2,171.13,242.56,165.58Z"/><path class="cls-2" d="M227.47,196.93c-3.81,2.77-7.19,8.88-3.77,14.36h0a212.37,212.37,0,0,0,19.47-15.09C237.39,190.24,231.27,194.17,227.47,196.93Z"/></svg>