<svg id="Layer_1" data-name="Layer 1" xmlns="http://www.w3.org/2000/svg" viewBox="0 0 300 300"><defs><style>.cls-1{fill:#bd4127;}.cls-2{fill:#153e3b;}.cls-3{fill:#d6a59b;}</style></defs><title>OK Emoji R3</title><path class="cls-1" d="M150,38.46C135.1,65.35,99.69,72.75,99.69,72.75V264.88h0v-37.8s-.23-13.65,4.64-35.54C113.15,151.9,150,132.4,150,132.4s36.85,19.5,45.67,59.14c4.87,21.89,4.64,35.54,4.64,35.54v37.8h0V72.75S164.9,65.35,150,38.46ZM129.48,98.29v16.64H113.54V98.29a30.31,30.31,0,0,1,.73-6,16.29,16.29,0,0,1,7.24-10,16.26,16.26,0,0,1,7.23,10A30.92,30.92,0,0,1,129.48,98.29Zm32-7.41v24.05h-23V90.88a44.11,44.11,0,0,1,1.07-8.72c2-9.71,10.45-14.5,10.45-14.5s8.44,4.79,10.46,14.5A43.51,43.51,0,0,1,161.45,90.88Zm25,7.41v16.64H170.52V98.29a30.92,30.92,0,0,1,.74-6,16.26,16.26,0,0,1,7.23-10,16.29,16.29,0,0,1,7.24,10A30.31,30.31,0,0,1,186.46,98.29Z"/><polygon class="cls-1" points="90.42 14.1 90.42 14.1 87.78 81.71 92.55 81.71 90.42 14.1"/><circle class="cls-1" cx="90.16" cy="58.38" r="9.52"/><polygon class="cls-1" points="209.84 14.1 209.84 14.1 207.46 81.71 212.22 81.71 209.84 14.1"/><circle class="cls-1" cx="209.84" cy="58.38" r="9.52"/><rect class="cls-2" x="80.64" y="264.88" width="138.72" height="20.85"/><rect class="cls-3" x="80.64" y="67.66" width="19.05" height="197.21"/><rect class="cls-3" x="200.31" y="67.66" width="19.05" height="197.21"/></svg>