<svg id="Layer_1" data-name="Layer 1" xmlns="http://www.w3.org/2000/svg" viewBox="0 0 300 300"><defs><style>.cls-1{fill:#dddfe2;}.cls-2{fill:#fbaf21;}.cls-3{fill:#282626;}.cls-4{fill:#bd4127;}.cls-5{fill:#d6a59b;}</style></defs><title>OK Emoji R3</title><path class="cls-1" d="M87.85,121.44s-26.54-9-46.11-15.94C25,99.52,4.66,83,18.11,64c11.19-15.81,38-21.54,61.39-28C99,30.61,99,38,82.28,43,70.9,46.31,46.14,53.38,41.28,61s2,15.43,12.32,17.85c8.54,2,44.67,8.79,44.67,8.79Z"/><path class="cls-2" d="M38.69,125.19S44.45,139.25,67,142c15.42,1.88,25.18-2.4,27.44-10-.36-7.93-8.81-14.43-24.23-16.32C47.66,112.93,38.69,125.19,38.69,125.19Z"/><path class="cls-2" d="M214.87,135c-.46-5.33-9-33.83-13.21-45.64s-29.65-9.5-52.12-6c-22.47-3.48-48-5.8-52.13,6S84.67,129.69,84.21,135s.31,15.4,12.74,24.09c2.32,1.62,3,8.81,2.78,13.44s-2.32,25,5.1,34.52,17.83,23.17,17.83,23.17h53.75s10.43-13.67,17.84-23.17,5.33-29.89,5.1-34.52.46-11.82,2.78-13.44C214.55,150.42,215.33,140.35,214.87,135Z"/><path class="cls-3" d="M95.39,160.73s9.72-5.78,20.27,11.93c3.24,5.45-.93,8.35-4.75,3.36l-3.82-5a9.33,9.33,0,0,1-5.91,1.62C97.94,172.32,91.68,168.38,95.39,160.73Z"/><path class="cls-4" d="M149.54,257.28l-20.83-1.06s6.58,9.4,9.53,11.49,11.3,1.56,11.3,1.56,8.34.52,11.29-1.56,9.54-11.49,9.54-11.49Z"/><path class="cls-5" d="M182.25,231.05c-1.34-9.21-3.7-14.25-7.87-14.25H124.69c-4.17,0-6.52,5-7.87,14.25s-1.34,21.72,4.74,23.8,22.77,2.43,28,2.43,21.89-.34,28-2.43S183.59,240.26,182.25,231.05Z"/><path class="cls-3" d="M203.69,160.73S194,155,183.41,172.66c-3.24,5.45.93,8.35,4.75,3.36l3.83-5a9.29,9.29,0,0,0,5.9,1.62C201.14,172.32,207.39,168.38,203.69,160.73Z"/><path class="cls-4" d="M149.54,235.73c-7.15,0-12-1.66-14.15-5.95-4-8.12-12.14-2.76-9.14,4.71s7.43,14.95,23.29,14.95Z"/><path class="cls-4" d="M149.54,235.73c7.14,0,12-1.66,14.14-5.95,4-8.12,12.15-2.76,9.15,4.71s-7.43,14.95-23.29,14.95Z"/><path class="cls-1" d="M211.23,121.44s26.54-9,46.1-15.94C274.11,99.52,294.42,83,281,64c-11.2-15.81-38-21.54-61.4-28-19.5-5.39-19.45,2-2.78,7,11.39,3.36,36.14,10.43,41,18.07s-2,15.43-12.32,17.85c-8.55,2-44.67,8.79-44.67,8.79Z"/><path class="cls-2" d="M260.39,125.19s-5.77,14.06-28.33,16.82c-15.43,1.88-25.18-2.4-27.44-10,.36-7.93,8.8-14.43,24.23-16.32C251.41,112.93,260.39,125.19,260.39,125.19Z"/></svg>