<svg id="Layer_1" data-name="Layer 1" xmlns="http://www.w3.org/2000/svg" viewBox="0 0 300 300"><defs><style>.cls-1{fill:#fbaf21;}.cls-2{fill:#153e3b;}.cls-3{fill:#282626;}</style></defs><title>OK Emoji R3</title><path class="cls-1" d="M242,252.27C219.62,242,188,232.42,188,227.61c0-3.25,7-42.46,13.32-75.45,7,1.79,15.08-4.18,18.41-13.8,3.44-10,.44-20.06-6.71-22.53a10.19,10.19,0,0,0-3.94-.53c0-.55,0-1.09,0-1.64a59.22,59.22,0,0,0-118.44,0c0,.55,0,1.09.05,1.64a10.16,10.16,0,0,0-3.94.53c-7.15,2.47-10.15,12.56-6.71,22.53C83.44,148,91.54,154,98.52,152.16c6.33,33,13.32,72.2,13.32,75.45,0,4.81-31.59,14.41-53.93,24.66-16.23,7.44-36.69,16.84-36.69,28.87H278.65C278.65,269.11,258.18,259.71,242,252.27Z"/><rect class="cls-2" x="78.16" y="41.11" width="143.54" height="31.18" rx="11.8" ry="11.8"/><rect class="cls-3" x="97.67" y="72.29" width="104.53" height="13.49"/><rect class="cls-2" x="146.82" y="26.97" width="6.22" height="19.14" rx="1.73" ry="1.73"/><path class="cls-3" d="M149.93,141.3S137.31,132,129.64,145c-6.21,10.49-14.73,15.52-20.3,10.07,0,0,7,16.44,23.43,4.31,9.5-7,17.16-12.3,17.16-12.3"/><path class="cls-3" d="M149.93,141.3s12.63-9.31,20.3,3.68c6.21,10.49,14.73,15.52,20.3,10.07,0,0-7,16.44-23.43,4.31-9.5-7-17.17-12.3-17.17-12.3"/><path class="cls-3" d="M242,252.27C219.62,242,188,232.42,188,227.61c0-1.9,2.38-16.07,5.63-34.1H106.21c3.25,18,5.63,32.2,5.63,34.1,0,4.81-31.59,14.41-53.93,24.66-16.23,7.44-36.69,16.84-36.69,28.87H278.65C278.65,269.11,258.18,259.71,242,252.27Z"/></svg>