<svg id="Layer_1" data-name="Layer 1" xmlns="http://www.w3.org/2000/svg" viewBox="0 0 300 300"><defs><style>.cls-1{fill:#dddfe2;}.cls-2{fill:#282626;}.cls-3{fill:#d6a59b;}.cls-4{fill:#bd4127;}</style></defs><title>OK Emoji R3</title><path class="cls-1" d="M37.85,107.61a7.06,7.06,0,0,0,0,10,31.87,31.87,0,0,0,17.73,7.73,32,32,0,0,0-7.73-17.73A7.07,7.07,0,0,0,37.85,107.61Z"/><path class="cls-1" d="M73.31,107.61a7.07,7.07,0,0,1,0,10,31.91,31.91,0,0,1-17.73,7.73,31.91,31.91,0,0,1,7.73-17.73A7.07,7.07,0,0,1,73.31,107.61Z"/><circle class="cls-2" cx="55.58" cy="125.34" r="6.2"/><path class="cls-3" d="M243.85,222.83H210.66a22,22,0,0,0,21.94-22h0a22,22,0,0,0-21.94-21.94H181.25A22,22,0,0,0,203.19,157h0a22,22,0,0,0-21.94-21.94H166.87c20.76-17.92,6.91-55.25,6.91-55.25s-2.86,17.3-21.84,17.36a22.06,22.06,0,0,0-22.05,21.94h0a21.92,21.92,0,0,0,6.91,16H119.49A22,22,0,0,0,97.55,157h0a22,22,0,0,0,21.94,21.94H90.08a22,22,0,0,0-22,21.94h0a22,22,0,0,0,22,22H56.89A22,22,0,0,0,35,244.77h0a22,22,0,0,0,21.94,21.94h187a22,22,0,0,0,21.94-21.94h0A22,22,0,0,0,243.85,222.83Z"/><path class="cls-1" d="M132.45,35.36a7.07,7.07,0,0,0,0,10,31.91,31.91,0,0,0,17.73,7.73,31.91,31.91,0,0,0-7.73-17.73A7.07,7.07,0,0,0,132.45,35.36Z"/><path class="cls-1" d="M167.91,35.36a7.06,7.06,0,0,1,0,10,31.87,31.87,0,0,1-17.73,7.73,32,32,0,0,1,7.73-17.73A7.07,7.07,0,0,1,167.91,35.36Z"/><circle class="cls-2" cx="150.18" cy="53.09" r="6.2"/><path class="cls-4" d="M187.72,178a22,22,0,0,0,15.47-21h0a22,22,0,0,0-15.54-21c-10.25-.37-18.17,7-22.74,15.8-5.36,10.29-17.58,15-30.86,9.43a30.44,30.44,0,0,0-33.45,6.87,22,22,0,0,0,14.71,10.41l4.18.41h61.76Z"/><path class="cls-4" d="M35,244.77h0a22,22,0,0,0,21.94,21.94h187a22,22,0,0,0,21.94-21.94h0a22,22,0,0,0-21.94-21.94H233.06c-4.3,3.53-7.44,7.58-12.21,11.15-9.15,6.86-23.29,6.58-32.87,1.43-13.71-7.37-28.89-7.33-39.15,5.43-11.71,14.57-39.43,18.29-54.47.26-12.36-14.81-21-18.27-32.59-18.27H56.89A22,22,0,0,0,35,244.77Z"/><path class="cls-4" d="M71.34,189.5a21.76,21.76,0,0,0-3.21,11.38h0a22,22,0,0,0,22,22H210.66a22,22,0,0,0,21.94-22h0a21.59,21.59,0,0,0-.41-4.2,21.43,21.43,0,0,0-7.91-1.85c-12.86-.28-17.43,12-35.15,11.43s-25.72-7.15-33.15-11.43-23.15-8.29-33.44-2.28-18.86,13.61-32.46,12.57C73.13,203.82,71.34,189.52,71.34,189.5Z"/><path class="cls-4" d="M129.89,119.11h0a21.92,21.92,0,0,0,6.91,16h30.07c7.68-6.63,10.62-15.91,11.28-25-5.06,4-13.59,8.61-23.2,5.36a25,25,0,0,1-15.66-14.26A21.85,21.85,0,0,0,129.89,119.11Z"/><path class="cls-1" d="M258.52,107.61a7.07,7.07,0,0,1,0,10,31.91,31.91,0,0,1-17.73,7.73,31.91,31.91,0,0,1,7.73-17.73A7.07,7.07,0,0,1,258.52,107.61Z"/><path class="cls-1" d="M223.06,107.61a7.06,7.06,0,0,0,0,10,31.87,31.87,0,0,0,17.73,7.73,32,32,0,0,0-7.73-17.73A7.07,7.07,0,0,0,223.06,107.61Z"/><circle class="cls-2" cx="240.79" cy="125.34" r="6.2"/></svg>