<svg id="Layer_1" data-name="Layer 1" xmlns="http://www.w3.org/2000/svg" viewBox="0 0 300 300"><defs><style>.cls-1{fill:#d6a59b;}.cls-2{fill:#bd4127;}.cls-3{fill:#153e3b;}</style></defs><title>OK Emoji R3</title><ellipse class="cls-1" cx="150.28" cy="80.98" rx="54.8" ry="37.16"/><path class="cls-2" d="M81.93,96.49C72.47,82.83,71.93,57,71.93,57s38.15-3,78.35,23.71v51.69Z"/><path class="cls-2" d="M218.63,96.49c9.46-13.66,10-39.51,10-39.51s-38.15-3-78.35,23.71v51.69Z"/><rect class="cls-3" x="145.95" y="135.1" width="8.66" height="99.5"/><path class="cls-1" d="M150.28,177C41.05,177,49.22,75.91,49.22,75.91s59.84-1.13,101.06,36.78Z"/><path class="cls-1" d="M150.28,177c109.23,0,101.06-101.1,101.06-101.1s-59.84-1.13-101.06,36.78Z"/><path class="cls-3" d="M251.62,234.6c-38.48-20.46-101.49-36-101.49,0S213.14,255.05,251.62,234.6Z"/><path class="cls-3" d="M48.94,234.6c38.48-20.46,101.48-36,101.48,0S87.42,255.05,48.94,234.6Z"/><rect class="cls-2" x="145.95" y="102.8" width="8.66" height="43.09" rx="4.08" ry="4.08"/></svg>