<svg id="Layer_1" data-name="Layer 1" xmlns="http://www.w3.org/2000/svg" viewBox="0 0 300 300"><defs><style>.cls-1{fill:#282626;}.cls-2{fill:#153e3b;}</style></defs><title>OK Emoji R3</title><path class="cls-1" d="M280,179.15l-7.48-4.86s12.32.27,21-3.53c-8.66-2.93-21-2.72-21-2.72l7.48-3.73c-30.06-17.51-73.32-5-80.05-2.93,13.45-8.19,40.54-27.61,47.7-54.78l-7.92,2.65s8.85-8.57,12.91-16.76c-8.19,4.06-16.76,12.92-16.76,12.92l2.66-7.93c-36.57,9.64-59.11,55.38-59.11,55.38s19.84-47.34,9.12-77.88c-3.22-9.19-6.29-11.29-6.29-11.29l-13.33,29.7s1.26-48.46-18.55-66.63c-19.82,18.17-18.56,66.63-18.56,66.63L118.5,63.69s-3.08,2.1-6.3,11.29c-10.71,30.54,9.12,77.88,9.12,77.88s-22.54-45.74-59.1-55.38l2.65,7.93S56.3,96.55,48.11,92.49C52.17,100.68,61,109.25,61,109.25L53.1,106.6c7.17,27.17,34.26,46.59,47.71,54.78-6.74-2.11-50-14.58-80,2.93L28.23,168s-12.32-.21-21,2.72c8.66,3.8,21,3.53,21,3.53l-7.47,4.86c32.66,24.8,82.46,11.93,82.46,11.93-34,14.69-49.8,56.95-49.8,56.95,63.77,2.36,89.55-47.25,89.55-47.25l-6.29,77.63h27.4l-6.3-77.63s25.79,49.61,89.55,47.25c0,0-15.75-42.26-49.79-56.95C197.54,191.08,247.33,204,280,179.15Z"/><path class="cls-2" d="M247.33,248s-15.75-42.26-49.79-56.95c0,0,49.79,12.87,82.46-11.93l-7.48-4.86s12.32.27,21-3.53c-8.66-2.93-21-2.72-21-2.72l7.48-3.73c-30.06-17.51-73.32-5-80.05-2.93,13.45-8.19,40.54-27.61,47.7-54.78l-7.92,2.65s8.85-8.57,12.91-16.76c-8.19,4.06-16.76,12.92-16.76,12.92l2.66-7.93c-36.57,9.64-59.11,55.38-59.11,55.38s19.84-47.34,9.12-77.88c-3.22-9.19-6.29-11.29-6.29-11.29l-13.33,29.7s.91-35-11-56.67l-7.56-10V278.41h13.7l-6.3-77.63S183.57,250.39,247.33,248Z"/></svg>