<svg id="Layer_1" data-name="Layer 1" xmlns="http://www.w3.org/2000/svg" viewBox="0 0 300 300"><defs><style>.cls-1{fill:#fbaf21;}.cls-2{fill:#bd4127;}.cls-3{fill:#d6a59b;}.cls-4{fill:#fff;}.cls-5{fill:#282626;}.cls-6{fill:#dddfe2;}</style></defs><title>OK Emoji R3</title><path class="cls-1" d="M242.38,252.94C220,242.7,188.45,233.1,188.45,228.29c0-3.26,7-42.46,13.32-75.46,7,1.8,15.08-4.18,18.41-13.79,3.44-10,.44-20.07-6.71-22.54a10.16,10.16,0,0,0-3.94-.52c0-.55.05-1.1.05-1.65a59.22,59.22,0,0,0-118.44,0c0,.55,0,1.1,0,1.65a10.18,10.18,0,0,0-3.94.52C80.09,119,77.09,129.06,80.53,139c3.33,9.61,11.43,15.59,18.41,13.79,6.34,33,13.32,72.2,13.32,75.46,0,4.81-31.59,14.41-53.93,24.65-16.22,7.45-36.69,16.85-36.69,28.88H279.07C279.07,269.79,258.61,260.39,242.38,252.94Z"/><path class="cls-2" d="M94.69,97.89V35.37c0-9.44,7.41-17.17,16.46-17.17h80.46c9,0,16.46,7.73,16.46,17.17V97.89"/><rect class="cls-3" x="55.77" y="91.77" width="152.3" height="8.84" rx="3.83" ry="3.83"/><rect class="cls-3" x="190.01" y="91.77" width="18.06" height="8.84"/><path class="cls-4" d="M175.65,60.31h-9.92v3.94h4V76.71c-5.06-1-11.12-5.76-11.12-16.54,0-10,4.54-16.75,8.78-16.75h2.34v1.93h4V37.83h-4v1.66h-2.34c-7.2,0-12.84,9.08-12.84,20.68,0,15.06,10.56,20.68,17.21,20.68h2V64.25h1.83Z"/><path class="cls-4" d="M198.43,76.91l-7.58-35.06h1.38V37.91h-7.76v3.94h1.82L180,76.91h-1.82v3.94h7.76V76.91h-1.82l2.29-12.66h5.19l2.74,12.66h-1.38v3.94h7.75V76.91Zm-11.36-16.6,1.65-9.12,2,9.12Z"/><path class="cls-4" d="M153.13,76.91l-7.58-35.06h1.38V37.91h-7.75v3.94H141l-6.34,35.06h-1.81v3.94h7.75V76.91h-1.82l2.29-12.66h5.19L149,76.91h-1.38v3.94h7.76V76.91Zm-11.36-16.6,1.66-9.12,2,9.12Z"/><polygon class="cls-4" points="127.01 76.91 127.01 41.85 129.33 41.85 129.33 37.91 124.98 37.91 121.81 37.91 119.58 37.91 119.58 40.63 116.95 53.51 114.1 39.52 114.1 37.91 112.1 37.91 108.93 37.91 104.35 37.91 104.35 41.85 106.9 41.85 106.9 76.91 104.35 76.91 104.35 80.85 112.24 80.85 112.24 76.91 110.95 76.91 110.95 44.39 114.96 64.02 118.94 64.02 122.95 44.39 122.95 76.91 121.53 76.91 121.53 80.85 129.42 80.85 129.42 76.91 127.01 76.91"/><circle class="cls-5" cx="151.38" cy="184.02" r="21.62"/><path class="cls-4" d="M151.38,172.81a36.74,36.74,0,0,0,16-3.29,21.61,21.61,0,0,0-32,0C139.36,171.54,145.06,172.81,151.38,172.81Z"/><path class="cls-6" d="M151.38,195.24c6.32,0,12,1.26,16,3.29a21.61,21.61,0,0,1-32,0C139.36,196.5,145.06,195.24,151.38,195.24Z"/></svg>