<svg id="Layer_1" data-name="Layer 1" xmlns="http://www.w3.org/2000/svg" viewBox="0 0 300 300"><defs><style>.cls-1{fill:#dddfe2;}.cls-2{fill:#fbaf21;}.cls-3{fill:#bd4127;}.cls-4{fill:#282626;}.cls-5{fill:#d6a59b;}</style></defs><title>OK Emoji R3</title><path class="cls-1" d="M98.14,109.94S57.91,50.87,52,42.39s-10.16-7.31-7.28,1.39S76.59,126.9,76.59,126.9Z"/><path class="cls-2" d="M147.11,94.62c10.49-16-3.72-19.15-11.53-13.28S83.75,120.82,78.78,125s-5.44,8.3-10.49,16-29.9,51.65-35.94,62.21-7,35.46,7.39,45.75,28.31,7.13,34.06-2.3,3.26-20.07,7.91-25.82,35-25.88,35-25.88,11.83,59.45,13.2,64.74,5.24,4.76,11.36,4.81,109.48.08,117.33-.49,15-10.45,11.5-17.53c-10.47-20.94-40.29-77.44-51-94.6s-28.9-30.39-49.64-34.31-33.81-4.13-33.81-4.13Z"/><path class="cls-3" d="M119.69,137.78c-3.84,5.41-5,24.6,13.72,24.25s22.45-.24,27.4,6.52,2.2,13.18,1.78,20.53-.48,12.82,3.75,16.65,10.72,4.22,15.72,1.52,12.08-3.66,15.3.81.69,9.25-3,16.21-11,25.32-8.26,31.83a18.05,18.05,0,0,0,7.5,8.44c29.33-.05,60.8-.18,65-.49,7.85-.57,15-10.45,11.5-17.53-10.47-20.94-40.29-77.44-51-94.6s-28.9-30.39-49.64-34.31-33.81-4.13-33.81-4.13C130.52,121.72,123.53,132.38,119.69,137.78Z"/><path class="cls-3" d="M59.26,255.28,61.65,233c-16.19-1.42-21.91,16-21.91,16C46.63,253.94,53.42,255.75,59.26,255.28Z"/><circle class="cls-4" cx="87.59" cy="152.28" r="8.3"/><polygon class="cls-5" points="251.04 74.9 240.81 94.97 256.75 110.9 234.49 107.38 224.26 127.45 220.74 105.2 198.49 101.68 218.56 91.45 215.03 69.19 230.97 85.13 251.04 74.9"/><polygon class="cls-5" points="177.26 45.57 183.33 56.7 195.8 54.37 187.09 63.59 193.16 74.72 181.7 69.28 172.99 78.5 174.62 65.92 163.16 60.48 175.63 58.15 177.26 45.57"/><polygon class="cls-5" points="235.21 45.8 226.85 46.33 224.76 54.44 221.68 46.65 213.32 47.17 219.78 41.84 216.69 34.05 223.76 38.53 230.22 33.2 228.14 41.31 235.21 45.8"/></svg>