<svg id="Layer_1" data-name="Layer 1" xmlns="http://www.w3.org/2000/svg" viewBox="0 0 300 300"><defs><style>.cls-1{fill:#d6a59b;}.cls-2{fill:#fbaf21;}.cls-3{fill:#dddfe2;}.cls-4{fill:none;stroke:#d6a59b;stroke-linecap:round;stroke-linejoin:round;stroke-width:8px;}</style></defs><title>OK Emoji R3</title><rect class="cls-1" x="50.21" y="66.17" width="28.23" height="28.23" transform="translate(-37.93 69) rotate(-45)"/><rect class="cls-1" x="135.65" y="28.15" width="28.23" height="28.23" transform="translate(299.53 84.53) rotate(-180)"/><rect class="cls-1" x="221.09" y="66.17" width="28.23" height="28.23" transform="translate(344.74 303.38) rotate(-135)"/><circle class="cls-2" cx="149.76" cy="165.73" r="112.92"/><circle class="cls-3" cx="149.76" cy="165.73" r="85.44"/><rect class="cls-2" x="122.31" y="21.35" width="54.91" height="13.6" rx="6.8" ry="6.8"/><path class="cls-1" d="M187.39,121.62s-42.09,31.4-46.92,38-5.58,15.17,3.48,21.76,16.93,3.22,21.76-3.43S187.39,121.62,187.39,121.62Z"/><line class="cls-4" x1="149.78" y1="97.66" x2="149.78" y2="114.48"/><line class="cls-4" x1="149.78" y1="218.23" x2="149.78" y2="235.05"/><line class="cls-4" x1="219.08" y1="166.35" x2="202.26" y2="166.35"/><line class="cls-4" x1="98.52" y1="166.35" x2="81.7" y2="166.35"/></svg>